# xmcd CD database file
#
# Track frame offsets:
#	150
#	14601
#	27941
#	41479
#	55315
#	68336
#	82162
#	94863
#	106989
#	120421
#	134445
#	147902
#	161877
#	173010
#	184902
#	195545
#	206477
#	219824
#	233177
#	247907
#	261818
#	276189
#	290824
#	305923
#
# Disc length: 4267 seconds
#
# Revision: 0
# Processed by: cddbd v1.5.2PL0 Copyright (c) Steve Scherf et al.
# Submitted via: CDex 1.70beta2
#
DISCID=6210a918
DTITLE=Various Artist - Jazz Roads CD135 - Swing - Coleman Hawkins Vol.6 (1944-45)
DYEAR=2006
DGENRE=Jazz
TTITLE0=Charlie Shavers' All American Five - My Man
TTITLE1=Charlie Shavers' All American Five - El Salon De Gutbucket
TTITLE2=Charlie Shavers' All American Five - Embraceable You
TTITLE3=Charlie Shavers' All American Five - Undecided
TTITLE4=Coleman Hawkins Quartet  - Recollections
TTITLE5=Coleman Hawkins Quartet  - Drifting On A Reed
TTITLE6=Coleman Hawkins Quartet  - Flyin' Hawk
TTITLE7=Coleman Hawkins Quartet  - On The Bean
TTITLE8=Coleman Hawkins And His Orchestra - Sportman's Hop
TTITLE9=Coleman Hawkins And His Orchestra - Bean Stalking
TTITLE10=Coleman Hawkins And His Orchestra - Ready For Love
TTITLE11=Coleman Hawkins And His Orchestra - Ladies Lullaby
TTITLE12=Coleman Hawkins And His Orchestra - The Night Ramble
TTITLE13=Coleman Hawkins And His Orchestra - Leave My Heart Alone
TTITLE14=Coleman Hawkins - Hawk's Variations, Part 1
TTITLE15=Coleman Hawkins - Hawk's Variations, Part 2
TTITLE16=Coleman Hawkins And His Orchestra - April In Paris
TTITLE17=Coleman Hawkins And His Orchestra - Rifftide
TTITLE18=Coleman Hawkins And His Orchestra - Stardust
TTITLE19=Coleman Hawkins And His Orchestra - Stuffy
TTITLE20=Coleman Hawkins And His Orchestra - Hollywood Stampede
TTITLE21=Coleman Hawkins And His Orchestra - I'm Through With Love
TTITLE22=Coleman Hawkins And His Orchestra - What Is There To Say
TTITLE23=Coleman Hawkins And His Orchestra - Wrap Your Troubles In Dreams
EXTD=YEAR: 2006
EXTT0=
EXTT1=
EXTT2=
EXTT3=
EXTT4=
EXTT5=
EXTT6=
EXTT7=
EXTT8=
EXTT9=
EXTT10=
EXTT11=
EXTT12=
EXTT13=
EXTT14=
EXTT15=
EXTT16=
EXTT17=
EXTT18=
EXTT19=
EXTT20=
EXTT21=
EXTT22=
EXTT23=
PLAYORDER=
